<?xml version="1.0" encoding="UTF-8" standalone="no"?>
<!DOCTYPE svg PUBLIC "-//W3C//DTD SVG 1.1//EN"
 "http://www.w3.org/Graphics/SVG/1.1/DTD/svg11.dtd">
<!-- Generated by graphviz version 2.42.3 (20191010.1750)
 -->
<!-- Title: %3 Pages: 1 -->
<svg width="196pt" height="368pt"
 viewBox="0.00 0.00 196.36 368.00" xmlns="http://www.w3.org/2000/svg" xmlns:xlink="http://www.w3.org/1999/xlink">
<g id="graph0" class="graph" transform="scale(1 1) rotate(0) translate(4 364)">
<title>%3</title>
<polygon fill="white" stroke="transparent" points="-4,4 -4,-364 192.36,-364 192.36,4 -4,4"/>
<!-- A -->
<g id="node1" class="node">
<title>A</title>
<ellipse fill="none" stroke="black" cx="68.71" cy="-342" rx="27" ry="18"/>
<text text-anchor="middle" x="68.71" y="-337.8" font-family="Times,serif" font-size="14.00">A</text>
</g>
<!-- A&#45;&gt;A -->
<g id="edge1" class="edge">
<title>A&#45;&gt;A</title>
<path fill="none" stroke="black" d="M94.16,-348.69C104.74,-349.15 113.71,-346.92 113.71,-342 113.71,-338.77 109.85,-336.7 104.2,-335.79"/>
<polygon fill="black" stroke="black" points="104.31,-332.29 94.16,-335.31 103.98,-339.28 104.31,-332.29"/>
<text text-anchor="middle" x="119.16" y="-337.8" font-family="Times,serif" font-size="14.00">id</text>
</g>
<!-- B -->
<g id="node2" class="node">
<title>B</title>
<ellipse fill="none" stroke="black" cx="68.71" cy="-269" rx="27" ry="18"/>
<text text-anchor="middle" x="68.71" y="-264.8" font-family="Times,serif" font-size="14.00">B</text>
</g>
<!-- A&#45;&gt;B -->
<!-- B&#45;&gt;B -->
<g id="edge3" class="edge">
<title>B:e&#45;&gt;B:e</title>
<path fill="none" stroke="black" d="M95.71,-269C101.71,-278 113.71,-278 113.71,-269 113.71,-263.23 108.79,-261.16 103.67,-262.78"/>
<polygon fill="black" stroke="black" points="101.44,-260.09 95.71,-269 105.75,-265.6 101.44,-260.09"/>
<text text-anchor="middle" x="117.21" y="-264.8" font-family="Times,serif" font-size="14.00">x</text>
</g>
<!-- B&#45;&gt;B -->
<g id="edge4" class="edge">
<title>B:s&#45;&gt;B:s</title>
<path fill="none" stroke="black" d="M68.71,-251C77.71,-245 77.71,-233 68.71,-233 62.95,-233 60.88,-237.92 62.5,-243.04"/>
<polygon fill="black" stroke="black" points="59.8,-245.27 68.71,-251 65.32,-240.96 59.8,-245.27"/>
<text text-anchor="middle" x="68.71" y="-221.8" font-family="Times,serif" font-size="14.00">x . x</text>
</g>
<!-- B&#45;&gt;B -->
<g id="edge5" class="edge">
<title>B:n&#45;&gt;B:n</title>
<path fill="none" stroke="black" d="M68.71,-287C77.71,-293 77.71,-305 68.71,-305 62.95,-305 60.88,-300.08 62.5,-294.96"/>
<polygon fill="black" stroke="black" points="65.32,-297.04 68.71,-287 59.8,-292.73 65.32,-297.04"/>
<text text-anchor="middle" x="68.71" y="-307.8" font-family="Times,serif" font-size="14.00">x . x . x ...</text>
</g>
<!-- B&#45;&gt;B -->
<g id="edge6" class="edge">
<title>B:w&#45;&gt;B:w</title>
<path fill="none" stroke="black" d="M41.71,-269C35.71,-278 23.71,-278 23.71,-269 23.71,-263.23 28.64,-261.16 33.76,-262.78"/>
<polygon fill="black" stroke="black" points="31.68,-265.6 41.71,-269 35.99,-260.09 31.68,-265.6"/>
<text text-anchor="middle" x="18.27" y="-264.8" font-family="Times,serif" font-size="14.00">id</text>
</g>
<!-- C1 -->
<g id="node3" class="node">
<title>C1</title>
<ellipse fill="none" stroke="black" cx="68.71" cy="-196" rx="27" ry="18"/>
<text text-anchor="middle" x="68.71" y="-191.8" font-family="Times,serif" font-size="14.00">C1</text>
</g>
<!-- B&#45;&gt;C1 -->
<!-- C1&#45;&gt;C1 -->
<g id="edge9" class="edge">
<title>C1&#45;&gt;C1</title>
<path fill="none" stroke="black" d="M94.16,-202.69C104.74,-203.15 113.71,-200.92 113.71,-196 113.71,-192.77 109.85,-190.7 104.2,-189.79"/>
<polygon fill="black" stroke="black" points="104.31,-186.29 94.16,-189.31 103.98,-193.28 104.31,-186.29"/>
<text text-anchor="middle" x="119.16" y="-191.8" font-family="Times,serif" font-size="14.00">id</text>
</g>
<!-- C2 -->
<g id="node4" class="node">
<title>C2</title>
<ellipse fill="none" stroke="black" cx="68.71" cy="-123" rx="27" ry="18"/>
<text text-anchor="middle" x="68.71" y="-118.8" font-family="Times,serif" font-size="14.00">C2</text>
</g>
<!-- C1&#45;&gt;C2 -->
<g id="edge8" class="edge">
<title>C1&#45;&gt;C2</title>
<path fill="none" stroke="black" d="M68.71,-177.81C68.71,-169.79 68.71,-160.05 68.71,-151.07"/>
<polygon fill="black" stroke="black" points="72.21,-151.03 68.71,-141.03 65.21,-151.03 72.21,-151.03"/>
</g>
<!-- C2&#45;&gt;C2 -->
<g id="edge10" class="edge">
<title>C2&#45;&gt;C2</title>
<path fill="none" stroke="black" d="M94.16,-129.69C104.74,-130.15 113.71,-127.92 113.71,-123 113.71,-119.77 109.85,-117.7 104.2,-116.79"/>
<polygon fill="black" stroke="black" points="104.31,-113.29 94.16,-116.31 103.98,-120.28 104.31,-113.29"/>
<text text-anchor="middle" x="119.16" y="-118.8" font-family="Times,serif" font-size="14.00">id</text>
</g>
<!-- D -->
<g id="node5" class="node">
<title>D</title>
<ellipse fill="none" stroke="black" cx="68.71" cy="-50" rx="27" ry="18"/>
<text text-anchor="middle" x="68.71" y="-45.8" font-family="Times,serif" font-size="14.00">D</text>
</g>
<!-- C2&#45;&gt;D -->
<g id="edge11" class="edge">
<title>C2&#45;&gt;D</title>
<polygon fill="black" stroke="black" points="72.21,-78.03 68.71,-68.03 65.21,-78.03 72.21,-78.03"/>
</g>
<!-- D&#45;&gt;D -->
<g id="edge12" class="edge">
<title>D:n&#45;&gt;D:n</title>
<path fill="none" stroke="black" d="M68.71,-68C77.71,-74 77.71,-86 68.71,-86 62.95,-86 60.88,-81.08 62.5,-75.96"/>
<polygon fill="black" stroke="black" points="65.32,-78.04 68.71,-68 59.8,-73.73 65.32,-78.04"/>
<text text-anchor="middle" x="68.71" y="-88.8" font-family="Times,serif" font-size="14.00">id</text>
</g>
<!-- D&#45;&gt;D -->
<g id="edge13" class="edge">
<title>D:s&#45;&gt;D:s</title>
<path fill="none" stroke="black" d="M68.71,-32C77.71,-26 77.71,-14 68.71,-14 62.95,-14 60.88,-18.92 62.5,-24.04"/>
<polygon fill="black" stroke="black" points="59.8,-26.27 68.71,-32 65.32,-21.96 59.8,-26.27"/>
<text text-anchor="middle" x="68.71" y="-2.8" font-family="Times,serif" font-size="14.00">a..</text>
</g>
<!-- D&#45;&gt;D -->
<g id="edge14" class="edge">
<title>D:w&#45;&gt;D:w</title>
<path fill="none" stroke="black" d="M41.71,-50C35.71,-59 23.71,-59 23.71,-50 23.71,-44.23 28.64,-42.16 33.76,-43.78"/>
<polygon fill="black" stroke="black" points="31.68,-46.6 41.71,-50 35.99,-41.09 31.68,-46.6"/>
<text text-anchor="middle" x="11.86" y="-45.8" font-family="Times,serif" font-size="14.00">a . b</text>
</g>
<!-- D&#45;&gt;D -->
<g id="edge15" class="edge">
<title>D:e&#45;&gt;D:e</title>
<path fill="none" stroke="black" d="M95.71,-50C101.71,-59 113.71,-59 113.71,-50 113.71,-44.23 108.79,-42.16 103.67,-43.78"/>
<polygon fill="black" stroke="black" points="101.44,-41.09 95.71,-50 105.75,-46.6 101.44,-41.09"/>
<text text-anchor="middle" x="151.03" y="-45.8" font-family="Times,serif" font-size="14.00">a . c . b . z . x</text>
</g>
</g>
</svg>
