<?xml version="1.0" encoding="UTF-8" standalone="no"?>
<!DOCTYPE svg PUBLIC "-//W3C//DTD SVG 1.1//EN"
 "http://www.w3.org/Graphics/SVG/1.1/DTD/svg11.dtd">
<!-- Generated by graphviz version 2.44.1 (20200629.0846)
 -->
<!-- Pages: 1 -->
<svg width="181pt" height="204pt"
 viewBox="0.00 0.00 180.91 204.00" xmlns="http://www.w3.org/2000/svg" xmlns:xlink="http://www.w3.org/1999/xlink">
<g id="graph0" class="graph" transform="scale(1 1) rotate(0) translate(4 200)">
<polygon fill="white" stroke="transparent" points="-4,4 -4,-200 176.91,-200 176.91,4 -4,4"/>
<!-- V -->
<g id="node1" class="node">
<title>V</title>
<ellipse fill="none" stroke="black" cx="127.91" cy="-178" rx="27" ry="18"/>
<text text-anchor="middle" x="127.91" y="-174.3" font-family="Times,serif" font-size="14.00">void</text>
</g>
<!-- V&#45;&gt;V -->
<g id="edge5" class="edge">
<title>V&#45;&gt;V</title>
<path fill="none" stroke="black" d="M153.35,-184.69C163.94,-185.15 172.91,-182.92 172.91,-178 172.91,-174.77 169.05,-172.7 163.4,-171.79"/>
<polygon fill="black" stroke="black" points="163.51,-168.29 153.35,-171.31 163.18,-175.28 163.51,-168.29"/>
</g>
<!-- S -->
<g id="node2" class="node">
<title>S</title>
<ellipse fill="none" stroke="black" cx="82.91" cy="-105" rx="27" ry="18"/>
<text text-anchor="middle" x="82.91" y="-101.3" font-family="Times,serif" font-size="14.00">()</text>
</g>
<!-- V&#45;&gt;S -->
<g id="edge2" class="edge">
<title>V&#45;&gt;S</title>
<path fill="none" stroke="black" d="M117.92,-161.24C112.23,-152.27 104.98,-140.83 98.56,-130.69"/>
<polygon fill="black" stroke="black" points="101.49,-128.78 93.18,-122.21 95.58,-132.53 101.49,-128.78"/>
</g>
<!-- B -->
<g id="node3" class="node">
<title>B</title>
<ellipse fill="none" stroke="black" cx="106.91" cy="-18" rx="27.9" ry="18"/>
<text text-anchor="middle" x="106.91" y="-14.3" font-family="Times,serif" font-size="14.00">Bool</text>
</g>
<!-- V&#45;&gt;B -->
<g id="edge1" class="edge">
<title>V&#45;&gt;B</title>
<path fill="none" stroke="black" d="M134.51,-160.38C143.11,-136.07 155.44,-89.82 140.91,-54 138.76,-48.7 135.38,-43.76 131.57,-39.36"/>
<polygon fill="black" stroke="black" points="133.91,-36.76 124.41,-32.07 128.91,-41.66 133.91,-36.76"/>
</g>
<!-- S&#45;&gt;S -->
<g id="edge6" class="edge">
<title>S&#45;&gt;S</title>
<path fill="none" stroke="black" d="M108.35,-111.69C118.94,-112.15 127.91,-109.92 127.91,-105 127.91,-101.77 124.05,-99.7 118.4,-98.79"/>
<polygon fill="black" stroke="black" points="118.51,-95.29 108.35,-98.31 118.18,-102.28 118.51,-95.29"/>
</g>
<!-- S&#45;&gt;B -->
<g id="edge3" class="edge">
<title>S&#45;&gt;B</title>
<path fill="none" stroke="black" d="M57.47,-98.65C28.66,-91.38 -12.3,-76.63 3.91,-54 18.6,-33.5 45.99,-24.86 68.84,-21.29"/>
<polygon fill="black" stroke="black" points="69.48,-24.73 78.95,-19.98 68.59,-17.79 69.48,-24.73"/>
<text text-anchor="middle" x="27.91" y="-57.8" font-family="Times,serif" font-size="14.00">()&#45;&gt;True</text>
</g>
<!-- S&#45;&gt;B -->
<g id="edge4" class="edge">
<title>S&#45;&gt;B</title>
<path fill="none" stroke="black" d="M76,-87.33C72.9,-77.38 70.77,-64.65 74.91,-54 76.83,-49.04 79.82,-44.36 83.22,-40.13"/>
<polygon fill="black" stroke="black" points="85.94,-42.34 90.08,-32.59 80.76,-37.63 85.94,-42.34"/>
<text text-anchor="middle" x="100.41" y="-57.8" font-family="Times,serif" font-size="14.00">()&#45;&gt;False</text>
</g>
<!-- B&#45;&gt;S -->
<g id="edge8" class="edge">
<title>B&#45;&gt;S</title>
<path fill="none" stroke="black" d="M119.38,-34.59C125.8,-44.59 131.25,-57.76 125.91,-69 122.67,-75.81 117.38,-81.74 111.61,-86.67"/>
<polygon fill="black" stroke="black" points="109.41,-83.95 103.57,-92.79 113.65,-89.52 109.41,-83.95"/>
</g>
<!-- B&#45;&gt;B -->
<g id="edge7" class="edge">
<title>B&#45;&gt;B</title>
<path fill="none" stroke="black" d="M132.42,-25.78C143.43,-26.42 152.86,-23.82 152.86,-18 152.86,-14.09 148.6,-11.63 142.47,-10.64"/>
<polygon fill="black" stroke="black" points="142.56,-7.14 132.42,-10.22 142.27,-14.13 142.56,-7.14"/>
</g>
</g>
</svg>
