<?xml version="1.0" encoding="UTF-8" standalone="no"?>
<!DOCTYPE svg PUBLIC "-//W3C//DTD SVG 1.1//EN"
 "http://www.w3.org/Graphics/SVG/1.1/DTD/svg11.dtd">
<!-- Generated by graphviz version 2.49.1 (20210923.0004)
 -->
<!-- Pages: 1 -->
<svg width="246pt" height="327pt"
 viewBox="0.00 0.00 245.75 327.00" xmlns="http://www.w3.org/2000/svg" xmlns:xlink="http://www.w3.org/1999/xlink">
<g id="graph0" class="graph" transform="scale(1 1) rotate(0) translate(36 291)">
<polygon fill="transparent" stroke="transparent" points="-36,36 -36,-291 209.75,-291 209.75,36 -36,36"/>
<!-- A -->
<g id="node1" class="node">
<title>A</title>
<polygon fill="#ffb90f" stroke="black" points="131.25,-255 64.25,-255 64.25,-219 131.25,-219 131.25,-255"/>
<text text-anchor="middle" x="97.75" y="-233.3" font-family="Courier New" font-size="14.00">Action</text>
</g>
<!-- S -->
<g id="node2" class="node">
<title>S</title>
<path fill="#a2cd5a" stroke="black" d="M78.25,-178.73C78.25,-180.53 65.02,-182 48.75,-182 32.47,-182 19.25,-180.53 19.25,-178.73 19.25,-178.73 19.25,-149.27 19.25,-149.27 19.25,-147.47 32.47,-146 48.75,-146 65.02,-146 78.25,-147.47 78.25,-149.27 78.25,-149.27 78.25,-178.73 78.25,-178.73"/>
<path fill="none" stroke="black" d="M78.25,-178.73C78.25,-176.92 65.02,-175.45 48.75,-175.45 32.47,-175.45 19.25,-176.92 19.25,-178.73"/>
<text text-anchor="middle" x="48.75" y="-160.3" font-family="Courier New" font-size="14.00">Store</text>
</g>
<!-- A&#45;&gt;S -->
<g id="edge3" class="edge">
<title>A&#45;&gt;S</title>
<path fill="none" stroke="white" d="M85.88,-218.81C79.99,-210.27 72.74,-199.77 66.22,-190.32"/>
<polygon fill="white" stroke="white" points="69.06,-188.27 60.5,-182.03 63.3,-192.25 69.06,-188.27"/>
</g>
<!-- V -->
<g id="node3" class="node">
<title>V</title>
<polygon fill="turquoise" stroke="black" points="173.75,-182 123.75,-182 123.75,-146 173.75,-146 173.75,-182"/>
<text text-anchor="middle" x="148.75" y="-160.3" font-family="Courier New" font-size="14.00">View</text>
</g>
<!-- S&#45;&gt;V -->
<g id="edge1" class="edge">
<title>S&#45;&gt;V</title>
<path fill="none" stroke="white" d="M78.48,-164C89.5,-164 102.1,-164 113.56,-164"/>
<polygon fill="white" stroke="white" points="113.68,-167.5 123.68,-164 113.68,-160.5 113.68,-167.5"/>
<text text-anchor="middle" x="101" y="-170.8" font-family="Times,serif" font-size="14.00">State</text>
</g>
<!-- R -->
<g id="node4" class="node">
<title>R</title>
<ellipse fill="deepskyblue" stroke="black" cx="48.75" cy="-91" rx="48.99" ry="18"/>
<text text-anchor="middle" x="48.75" y="-87.3" font-family="Courier New" font-size="14.00">Reducer</text>
</g>
<!-- S&#45;&gt;R -->
<g id="edge4" class="edge">
<title>S&#45;&gt;R</title>
<path fill="none" stroke="white" d="M42.87,-145.81C42.03,-137.79 41.79,-128.05 42.17,-119.07"/>
<polygon fill="white" stroke="white" points="45.66,-119.25 42.88,-109.03 38.68,-118.75 45.66,-119.25"/>
</g>
<!-- V&#45;&gt;A -->
<g id="edge2" class="edge">
<title>V&#45;&gt;A</title>
<path fill="none" stroke="white" d="M136.51,-182.03C130.39,-190.55 122.86,-201.04 116.06,-210.5"/>
<polygon fill="white" stroke="white" points="113.08,-208.65 110.09,-218.81 118.77,-212.73 113.08,-208.65"/>
</g>
<!-- R&#45;&gt;S -->
<g id="edge5" class="edge">
<title>R&#45;&gt;S</title>
<path fill="none" stroke="white" d="M54.61,-109.03C55.45,-117.03 55.7,-126.77 55.33,-135.75"/>
<polygon fill="white" stroke="white" points="51.83,-135.59 54.62,-145.81 58.82,-136.08 51.83,-135.59"/>
</g>
<!-- R2 -->
<g id="node5" class="node">
<title>R2</title>
<ellipse fill="deepskyblue" stroke="black" cx="48.75" cy="-18" rx="48.99" ry="18"/>
<text text-anchor="middle" x="48.75" y="-14.3" font-family="Courier New" font-size="14.00">Reducer</text>
</g>
<!-- R&#45;&gt;R2 -->
<g id="edge6" class="edge">
<title>R&#45;&gt;R2</title>
<path fill="none" stroke="white" d="M42.87,-72.81C42.03,-64.79 41.79,-55.05 42.17,-46.07"/>
<polygon fill="white" stroke="white" points="45.66,-46.25 42.88,-36.03 38.68,-45.75 45.66,-46.25"/>
</g>
<!-- R2&#45;&gt;R -->
<g id="edge7" class="edge">
<title>R2&#45;&gt;R</title>
<path fill="none" stroke="white" d="M54.61,-36.03C55.45,-44.03 55.7,-53.77 55.33,-62.75"/>
<polygon fill="white" stroke="white" points="51.83,-62.59 54.62,-72.81 58.82,-63.08 51.83,-62.59"/>
</g>
</g>
</svg>
