<?xml version="1.0" encoding="UTF-8" standalone="no"?>
<!DOCTYPE svg PUBLIC "-//W3C//DTD SVG 1.1//EN"
 "http://www.w3.org/Graphics/SVG/1.1/DTD/svg11.dtd">
<!-- Generated by graphviz version 2.44.1 (20200629.0846)
 -->
<!-- Pages: 1 -->
<svg width="200pt" height="369pt"
 viewBox="0.00 0.00 200.00 369.00" xmlns="http://www.w3.org/2000/svg" xmlns:xlink="http://www.w3.org/1999/xlink">
<g id="graph0" class="graph" transform="scale(1 1) rotate(0) translate(4 365)">
<polygon fill="white" stroke="transparent" points="-4,4 -4,-365 196,-365 196,4 -4,4"/>
<!-- A -->
<g id="node1" class="node">
<title>A</title>
<ellipse fill="none" stroke="black" cx="70" cy="-343" rx="27" ry="18"/>
<text text-anchor="middle" x="70" y="-339.3" font-family="Times,serif" font-size="14.00">A</text>
</g>
<!-- A&#45;&gt;A -->
<g id="edge1" class="edge">
<title>A&#45;&gt;A</title>
<path fill="none" stroke="black" d="M95.44,-349.69C106.03,-350.15 115,-347.92 115,-343 115,-339.77 111.14,-337.7 105.49,-336.79"/>
<polygon fill="black" stroke="black" points="105.6,-333.29 95.44,-336.31 105.27,-340.28 105.6,-333.29"/>
<text text-anchor="middle" x="120.5" y="-339.3" font-family="Times,serif" font-size="14.00">id</text>
</g>
<!-- B -->
<g id="node2" class="node">
<title>B</title>
<ellipse fill="none" stroke="black" cx="70" cy="-270" rx="27" ry="18"/>
<text text-anchor="middle" x="70" y="-266.3" font-family="Times,serif" font-size="14.00">B</text>
</g>
<!-- A&#45;&gt;B -->
<!-- B&#45;&gt;B -->
<g id="edge3" class="edge">
<title>B:e&#45;&gt;B:e</title>
<path fill="none" stroke="black" d="M97,-270C103,-279 115,-279 115,-270 115,-264.23 110.08,-262.16 104.96,-263.78"/>
<polygon fill="black" stroke="black" points="102.73,-261.09 97,-270 107.04,-266.6 102.73,-261.09"/>
<text text-anchor="middle" x="118.5" y="-266.3" font-family="Times,serif" font-size="14.00">x</text>
</g>
<!-- B&#45;&gt;B -->
<g id="edge4" class="edge">
<title>B:s&#45;&gt;B:s</title>
<path fill="none" stroke="black" d="M70,-252C79,-246 79,-234 70,-234 64.23,-234 62.16,-238.92 63.78,-244.04"/>
<polygon fill="black" stroke="black" points="61.09,-246.27 70,-252 66.6,-241.96 61.09,-246.27"/>
<text text-anchor="middle" x="70" y="-222.8" font-family="Times,serif" font-size="14.00">x . x</text>
</g>
<!-- B&#45;&gt;B -->
<g id="edge5" class="edge">
<title>B:n&#45;&gt;B:n</title>
<path fill="none" stroke="black" d="M70,-288C79,-294 79,-306 70,-306 64.23,-306 62.16,-301.08 63.78,-295.96"/>
<polygon fill="black" stroke="black" points="66.6,-298.04 70,-288 61.09,-293.73 66.6,-298.04"/>
<text text-anchor="middle" x="70" y="-309.8" font-family="Times,serif" font-size="14.00">x . x . x ...</text>
</g>
<!-- B&#45;&gt;B -->
<g id="edge6" class="edge">
<title>B:w&#45;&gt;B:w</title>
<path fill="none" stroke="black" d="M43,-270C37,-279 25,-279 25,-270 25,-264.23 29.92,-262.16 35.04,-263.78"/>
<polygon fill="black" stroke="black" points="32.96,-266.6 43,-270 37.27,-261.09 32.96,-266.6"/>
<text text-anchor="middle" x="19.5" y="-266.3" font-family="Times,serif" font-size="14.00">id</text>
</g>
<!-- C1 -->
<g id="node3" class="node">
<title>C1</title>
<ellipse fill="none" stroke="black" cx="70" cy="-197" rx="27" ry="18"/>
<text text-anchor="middle" x="70" y="-193.3" font-family="Times,serif" font-size="14.00">C1</text>
</g>
<!-- B&#45;&gt;C1 -->
<!-- C1&#45;&gt;C1 -->
<g id="edge9" class="edge">
<title>C1&#45;&gt;C1</title>
<path fill="none" stroke="black" d="M95.44,-203.69C106.03,-204.15 115,-201.92 115,-197 115,-193.77 111.14,-191.7 105.49,-190.79"/>
<polygon fill="black" stroke="black" points="105.6,-187.29 95.44,-190.31 105.27,-194.28 105.6,-187.29"/>
<text text-anchor="middle" x="120.5" y="-193.3" font-family="Times,serif" font-size="14.00">id</text>
</g>
<!-- C2 -->
<g id="node4" class="node">
<title>C2</title>
<ellipse fill="none" stroke="black" cx="70" cy="-124" rx="27" ry="18"/>
<text text-anchor="middle" x="70" y="-120.3" font-family="Times,serif" font-size="14.00">C2</text>
</g>
<!-- C1&#45;&gt;C2 -->
<g id="edge8" class="edge">
<title>C1&#45;&gt;C2</title>
<path fill="none" stroke="black" d="M70,-178.81C70,-170.79 70,-161.05 70,-152.07"/>
<polygon fill="black" stroke="black" points="73.5,-152.03 70,-142.03 66.5,-152.03 73.5,-152.03"/>
</g>
<!-- C2&#45;&gt;C2 -->
<g id="edge10" class="edge">
<title>C2&#45;&gt;C2</title>
<path fill="none" stroke="black" d="M95.44,-130.69C106.03,-131.15 115,-128.92 115,-124 115,-120.77 111.14,-118.7 105.49,-117.79"/>
<polygon fill="black" stroke="black" points="105.6,-114.29 95.44,-117.31 105.27,-121.28 105.6,-114.29"/>
<text text-anchor="middle" x="120.5" y="-120.3" font-family="Times,serif" font-size="14.00">id</text>
</g>
<!-- D -->
<g id="node5" class="node">
<title>D</title>
<ellipse fill="none" stroke="black" cx="70" cy="-51" rx="27" ry="18"/>
<text text-anchor="middle" x="70" y="-47.3" font-family="Times,serif" font-size="14.00">D</text>
</g>
<!-- C2&#45;&gt;D -->
<g id="edge11" class="edge">
<title>C2&#45;&gt;D</title>
<polygon fill="black" stroke="black" points="73.5,-79.03 70,-69.03 66.5,-79.03 73.5,-79.03"/>
</g>
<!-- D&#45;&gt;D -->
<g id="edge12" class="edge">
<title>D:n&#45;&gt;D:n</title>
<path fill="none" stroke="black" d="M70,-69C79,-75 79,-87 70,-87 64.23,-87 62.16,-82.08 63.78,-76.96"/>
<polygon fill="black" stroke="black" points="66.6,-79.04 70,-69 61.09,-74.73 66.6,-79.04"/>
<text text-anchor="middle" x="70" y="-90.8" font-family="Times,serif" font-size="14.00">id</text>
</g>
<!-- D&#45;&gt;D -->
<g id="edge13" class="edge">
<title>D:s&#45;&gt;D:s</title>
<path fill="none" stroke="black" d="M70,-33C79,-27 79,-15 70,-15 64.23,-15 62.16,-19.92 63.78,-25.04"/>
<polygon fill="black" stroke="black" points="61.09,-27.27 70,-33 66.6,-22.96 61.09,-27.27"/>
<text text-anchor="middle" x="70" y="-3.8" font-family="Times,serif" font-size="14.00">a..</text>
</g>
<!-- D&#45;&gt;D -->
<g id="edge14" class="edge">
<title>D:w&#45;&gt;D:w</title>
<path fill="none" stroke="black" d="M43,-51C37,-60 25,-60 25,-51 25,-45.23 29.92,-43.16 35.04,-44.78"/>
<polygon fill="black" stroke="black" points="32.96,-47.6 43,-51 37.27,-42.09 32.96,-47.6"/>
<text text-anchor="middle" x="12.5" y="-47.3" font-family="Times,serif" font-size="14.00">a . b</text>
</g>
<!-- D&#45;&gt;D -->
<g id="edge15" class="edge">
<title>D:e&#45;&gt;D:e</title>
<path fill="none" stroke="black" d="M97,-51C103,-60 115,-60 115,-51 115,-45.23 110.08,-43.16 104.96,-44.78"/>
<polygon fill="black" stroke="black" points="102.73,-42.09 97,-51 107.04,-47.6 102.73,-42.09"/>
<text text-anchor="middle" x="153.5" y="-47.3" font-family="Times,serif" font-size="14.00">a . c . b . z . x</text>
</g>
</g>
</svg>
