<?xml version="1.0" encoding="UTF-8" standalone="no"?>
<!DOCTYPE svg PUBLIC "-//W3C//DTD SVG 1.1//EN"
 "http://www.w3.org/Graphics/SVG/1.1/DTD/svg11.dtd">
<!-- Generated by graphviz version 2.42.3 (20191010.1750)
 -->
<!-- Title: %3 Pages: 1 -->
<svg width="181pt" height="203pt"
 viewBox="0.00 0.00 180.69 203.00" xmlns="http://www.w3.org/2000/svg" xmlns:xlink="http://www.w3.org/1999/xlink">
<g id="graph0" class="graph" transform="scale(1 1) rotate(0) translate(4 199)">
<title>%3</title>
<polygon fill="white" stroke="transparent" points="-4,4 -4,-199 176.69,-199 176.69,4 -4,4"/>
<!-- V -->
<g id="node1" class="node">
<title>V</title>
<ellipse fill="none" stroke="black" cx="127.69" cy="-177" rx="27" ry="18"/>
<text text-anchor="middle" x="127.69" y="-172.8" font-family="Times,serif" font-size="14.00">void</text>
</g>
<!-- V&#45;&gt;V -->
<g id="edge5" class="edge">
<title>V&#45;&gt;V</title>
<path fill="none" stroke="black" d="M153.13,-183.69C163.72,-184.15 172.69,-181.92 172.69,-177 172.69,-173.77 168.83,-171.7 163.18,-170.79"/>
<polygon fill="black" stroke="black" points="163.29,-167.29 153.13,-170.31 162.96,-174.28 163.29,-167.29"/>
</g>
<!-- S -->
<g id="node2" class="node">
<title>S</title>
<ellipse fill="none" stroke="black" cx="82.69" cy="-104" rx="27" ry="18"/>
<text text-anchor="middle" x="82.69" y="-99.8" font-family="Times,serif" font-size="14.00">()</text>
</g>
<!-- V&#45;&gt;S -->
<g id="edge2" class="edge">
<title>V&#45;&gt;S</title>
<path fill="none" stroke="black" d="M117.7,-160.24C112.02,-151.27 104.76,-139.83 98.34,-129.69"/>
<polygon fill="black" stroke="black" points="101.27,-127.78 92.96,-121.21 95.36,-131.53 101.27,-127.78"/>
</g>
<!-- B -->
<g id="node3" class="node">
<title>B</title>
<ellipse fill="none" stroke="black" cx="106.69" cy="-18" rx="27.11" ry="18"/>
<text text-anchor="middle" x="106.69" y="-13.8" font-family="Times,serif" font-size="14.00">Bool</text>
</g>
<!-- V&#45;&gt;B -->
<g id="edge1" class="edge">
<title>V&#45;&gt;B</title>
<path fill="none" stroke="black" d="M134.54,-159.5C143.49,-135.37 156.38,-89.45 141.69,-54 139.47,-48.64 135.99,-43.67 132.06,-39.27"/>
<polygon fill="black" stroke="black" points="134.26,-36.52 124.7,-31.97 129.34,-41.49 134.26,-36.52"/>
</g>
<!-- S&#45;&gt;S -->
<g id="edge6" class="edge">
<title>S&#45;&gt;S</title>
<path fill="none" stroke="black" d="M108.13,-110.69C118.72,-111.15 127.69,-108.92 127.69,-104 127.69,-100.77 123.83,-98.7 118.18,-97.79"/>
<polygon fill="black" stroke="black" points="118.29,-94.29 108.13,-97.31 117.96,-101.28 118.29,-94.29"/>
</g>
<!-- S&#45;&gt;B -->
<g id="edge3" class="edge">
<title>S&#45;&gt;B</title>
<path fill="none" stroke="black" d="M57.09,-97.79C28.38,-90.74 -12.17,-76.4 3.87,-54 18.62,-33.39 46.23,-24.77 69.12,-21.24"/>
<polygon fill="black" stroke="black" points="69.77,-24.68 79.25,-19.95 68.89,-17.74 69.77,-24.68"/>
<text text-anchor="middle" x="28.6" y="-56.8" font-family="Times,serif" font-size="14.00">()&#45;&gt;True</text>
</g>
<!-- S&#45;&gt;B -->
<g id="edge4" class="edge">
<title>S&#45;&gt;B</title>
<path fill="none" stroke="black" d="M75.45,-86.21C72.33,-76.54 70.22,-64.29 74.26,-54 76.21,-49.02 79.24,-44.32 82.68,-40.08"/>
<polygon fill="black" stroke="black" points="85.43,-42.27 89.64,-32.55 80.28,-37.53 85.43,-42.27"/>
<text text-anchor="middle" x="100.41" y="-56.8" font-family="Times,serif" font-size="14.00">()&#45;&gt;False</text>
</g>
<!-- B&#45;&gt;S -->
<g id="edge8" class="edge">
<title>B&#45;&gt;S</title>
<path fill="none" stroke="black" d="M119.1,-34.26C125.49,-44.05 130.94,-56.96 125.69,-68 122.45,-74.81 117.16,-80.74 111.39,-85.67"/>
<polygon fill="black" stroke="black" points="109.19,-82.95 103.35,-91.79 113.43,-88.52 109.19,-82.95"/>
</g>
<!-- B&#45;&gt;B -->
<g id="edge7" class="edge">
<title>B&#45;&gt;B</title>
<path fill="none" stroke="black" d="M131.39,-25.75C142.44,-26.49 152,-23.91 152,-18 152,-14.03 147.68,-11.56 141.5,-10.59"/>
<polygon fill="black" stroke="black" points="141.5,-7.09 131.39,-10.25 141.26,-14.09 141.5,-7.09"/>
</g>
</g>
</svg>
