<?xml version="1.0" encoding="UTF-8" standalone="no"?>
<!DOCTYPE svg PUBLIC "-//W3C//DTD SVG 1.1//EN"
 "http://www.w3.org/Graphics/SVG/1.1/DTD/svg11.dtd">
<!-- Generated by graphviz version 2.49.1 (20210923.0004)
 -->
<!-- Pages: 1 -->
<svg width="261pt" height="327pt"
 viewBox="0.00 0.00 260.75 327.00" xmlns="http://www.w3.org/2000/svg" xmlns:xlink="http://www.w3.org/1999/xlink">
<g id="graph0" class="graph" transform="scale(1 1) rotate(0) translate(36 291)">
<polygon fill="transparent" stroke="transparent" points="-36,36 -36,-291 224.75,-291 224.75,36 -36,36"/>
<!-- A -->
<g id="node1" class="node">
<title>A</title>
<polygon fill="#ffb90f" stroke="black" points="139.25,-255 72.25,-255 72.25,-219 139.25,-219 139.25,-255"/>
<text text-anchor="middle" x="105.75" y="-233.3" font-family="Courier New" font-size="14.00">Action</text>
</g>
<!-- S -->
<g id="node2" class="node">
<title>S</title>
<path fill="#a2cd5a" stroke="black" d="M78.25,-178.73C78.25,-180.53 65.02,-182 48.75,-182 32.47,-182 19.25,-180.53 19.25,-178.73 19.25,-178.73 19.25,-149.27 19.25,-149.27 19.25,-147.47 32.47,-146 48.75,-146 65.02,-146 78.25,-147.47 78.25,-149.27 78.25,-149.27 78.25,-178.73 78.25,-178.73"/>
<path fill="none" stroke="black" d="M78.25,-178.73C78.25,-176.92 65.02,-175.45 48.75,-175.45 32.47,-175.45 19.25,-176.92 19.25,-178.73"/>
<text text-anchor="middle" x="48.75" y="-160.3" font-family="Courier New" font-size="14.00">Store</text>
</g>
<!-- A&#45;&gt;S -->
<g id="edge3" class="edge">
<title>A&#45;&gt;S</title>
<path fill="none" stroke="white" d="M91.95,-218.81C85.02,-210.18 76.49,-199.56 68.84,-190.03"/>
<polygon fill="white" stroke="white" points="71.41,-187.64 62.42,-182.03 65.95,-192.02 71.41,-187.64"/>
</g>
<!-- V -->
<g id="node3" class="node">
<title>V</title>
<polygon fill="turquoise" stroke="black" points="188.75,-182 138.75,-182 138.75,-146 188.75,-146 188.75,-182"/>
<text text-anchor="middle" x="163.75" y="-160.3" font-family="Courier New" font-size="14.00">View</text>
</g>
<!-- S&#45;&gt;V -->
<g id="edge1" class="edge">
<title>S&#45;&gt;V</title>
<path fill="none" stroke="white" d="M78.36,-164C93.65,-164 112.4,-164 128.44,-164"/>
<polygon fill="white" stroke="white" points="128.52,-167.5 138.52,-164 128.52,-160.5 128.52,-167.5"/>
<text text-anchor="middle" x="108.5" y="-170.8" font-family="Courier New" font-size="14.00" fill="white">State</text>
</g>
<!-- R -->
<g id="node4" class="node">
<title>R</title>
<ellipse fill="deepskyblue" stroke="black" cx="48.75" cy="-91" rx="48.99" ry="18"/>
<text text-anchor="middle" x="48.75" y="-87.3" font-family="Courier New" font-size="14.00">Reducer</text>
</g>
<!-- S&#45;&gt;R -->
<g id="edge4" class="edge">
<title>S&#45;&gt;R</title>
<path fill="none" stroke="white" d="M42.87,-145.81C42.03,-137.79 41.79,-128.05 42.17,-119.07"/>
<polygon fill="white" stroke="white" points="45.66,-119.25 42.88,-109.03 38.68,-118.75 45.66,-119.25"/>
</g>
<!-- V&#45;&gt;A -->
<g id="edge2" class="edge">
<title>V&#45;&gt;A</title>
<path fill="none" stroke="white" d="M149.83,-182.03C142.8,-190.64 134.13,-201.26 126.34,-210.79"/>
<polygon fill="white" stroke="white" points="123.4,-208.85 119.79,-218.81 128.82,-213.28 123.4,-208.85"/>
</g>
<!-- R&#45;&gt;S -->
<g id="edge5" class="edge">
<title>R&#45;&gt;S</title>
<path fill="none" stroke="white" d="M54.61,-109.03C55.45,-117.03 55.7,-126.77 55.33,-135.75"/>
<polygon fill="white" stroke="white" points="51.83,-135.59 54.62,-145.81 58.82,-136.08 51.83,-135.59"/>
</g>
<!-- R2 -->
<g id="node5" class="node">
<title>R2</title>
<ellipse fill="deepskyblue" stroke="black" cx="48.75" cy="-18" rx="48.99" ry="18"/>
<text text-anchor="middle" x="48.75" y="-14.3" font-family="Courier New" font-size="14.00">Reducer</text>
</g>
<!-- R&#45;&gt;R2 -->
<g id="edge6" class="edge">
<title>R&#45;&gt;R2</title>
<path fill="none" stroke="white" d="M42.87,-72.81C42.03,-64.79 41.79,-55.05 42.17,-46.07"/>
<polygon fill="white" stroke="white" points="45.66,-46.25 42.88,-36.03 38.68,-45.75 45.66,-46.25"/>
</g>
<!-- R2&#45;&gt;R -->
<g id="edge7" class="edge">
<title>R2&#45;&gt;R</title>
<path fill="none" stroke="white" d="M54.61,-36.03C55.45,-44.03 55.7,-53.77 55.33,-62.75"/>
<polygon fill="white" stroke="white" points="51.83,-62.59 54.62,-72.81 58.82,-63.08 51.83,-62.59"/>
</g>
</g>
</svg>
